<svg width="400" height="400" viewBox="0 0 400 400" fill="none" xmlns="http://www.w3.org/2000/svg">
<g clip-path="url(#clip0_14219_18481)">
<rect width="400" height="400" rx="200" fill="black"></rect>
<path d="M280.028 23.7896L279.812 23.7762H279.595C278.779 23.7762 277.349 23.3444 274.69 21.7889C273.82 21.2798 273.009 20.7709 272.11 20.2066C271.675 19.9332 271.219 19.6469 270.725 19.3412C269.333 18.4795 267.713 17.511 266.021 16.7196L263.056 23.0604L266.021 16.7196C262.117 14.8938 258.211 14.1941 255.071 13.6851C254.672 13.6204 254.287 13.5588 253.914 13.4992C251.127 13.0537 249.01 12.7153 246.911 12.0006C245.921 11.6637 244.856 11.2682 243.725 10.8482C239.88 9.4206 235.27 7.70931 230.265 7.04828C225.235 6.38408 219.564 6.56074 214.752 6.71063C212.895 6.76848 211.166 6.82235 209.651 6.82235C196.128 6.82235 183.41 7.423 169.753 9.82782C164.016 10.838 158.319 12.2484 152.979 13.5708L152.974 13.5719C151.466 13.9453 149.827 14.3197 148.119 14.7099C144.477 15.5417 140.521 16.4453 136.849 17.5643C134.572 18.2583 132.569 18.6696 130.3 19.1355C129.177 19.3662 127.988 19.6102 126.669 19.9086C122.959 20.7475 118.812 21.927 114.602 24.4388C111.236 26.4469 108.816 29.6757 107.418 31.5411C107.234 31.7871 107.067 32.0094 106.918 32.202C105.147 34.4971 104.653 34.6266 104.586 34.644L104.585 34.6441C98.8671 36.1434 93.0656 38.3204 87.68 41.5208C83.98 43.7196 81.3317 46.8784 79.4144 49.2785C78.9915 49.8079 78.6033 50.3001 78.2407 50.7597C76.734 52.6697 75.6708 54.0176 74.4073 55.135C73.0514 56.3339 71.6277 57.4383 69.9984 58.7022C69.6894 58.9419 69.3729 59.1873 69.0481 59.4403C67.1047 60.9538 64.9175 62.6956 62.8687 64.7248C47.8802 79.5698 32.7 98.5357 24.4018 118.527C24.4018 118.527 24.4018 118.527 24.4017 118.527L24.1536 119.125L24.1535 119.125L24.0608 119.348C18.598 132.508 12.4139 147.405 8.6042 161.902C6.85835 168.545 6.50594 175.258 6.41123 181.448C6.38256 183.323 6.37617 185.119 6.36998 186.863C6.35481 191.13 6.34077 195.081 6.00386 199.085C5.3545 206.803 6.75736 214.004 8.18266 220.373C8.40879 221.383 8.63409 222.369 8.85477 223.334C10.0853 228.716 11.1723 233.47 11.4586 238.434C12.4653 255.882 16.8373 269.233 26.2923 283.8C27.0524 284.971 27.8782 286.122 28.6033 287.13L28.7014 287.266C29.4196 288.264 30.0408 289.127 30.5985 289.967C31.179 290.842 31.5833 291.535 31.8486 292.094C32.0975 292.619 32.1395 292.853 32.1406 292.855C32.1407 292.855 32.1405 292.854 32.14 292.85C32.9258 299.076 36.2403 304.766 39.47 309.267C42.0635 312.881 45.0815 316.352 47.511 319.146C48.1382 319.868 48.7263 320.544 49.2576 321.166L54.5798 316.619L49.2576 321.166C53.7563 326.431 58.5712 331.912 64.0419 336.897C66.3216 338.974 68.5162 341.196 70.8451 343.569L71.1973 343.927C73.3811 346.152 75.6956 348.51 78.129 350.77C82.8909 355.191 88.5649 358.2 93.4565 360.723C93.8427 360.922 94.224 361.118 94.6005 361.312C99.2677 363.712 103.194 365.732 106.535 368.368C107.133 368.84 107.725 369.318 108.317 369.796C113.228 373.764 118.17 377.757 127.285 378.659L127.629 378.694H127.975C127.969 378.694 128.232 378.686 129.288 379.13C129.654 379.284 129.886 379.388 130.165 379.514C130.413 379.625 130.698 379.753 131.147 379.947C131.879 380.265 132.814 380.649 133.859 380.964C135.753 381.535 137.649 382.172 139.669 382.85C139.964 382.95 140.263 383.05 140.564 383.151C142.874 383.925 145.335 384.738 147.843 385.437C149.605 385.928 151.466 386.523 153.508 387.184L153.974 387.334C155.841 387.939 157.85 388.589 159.874 389.181C164.209 390.45 169.17 391.628 174.166 391.628C175.587 391.628 177.104 391.817 178.995 392.118C179.359 392.176 179.748 392.241 180.157 392.309C181.701 392.565 183.528 392.867 185.311 393.044C191.068 393.614 197.404 393.428 203.075 393.262C205.562 393.189 207.922 393.119 210.048 393.119C214.235 393.119 218.133 392.871 222.241 392.362C225.27 391.987 228.561 391.373 231.732 390.391C239.081 388.116 247.796 385.802 255.416 383.862C262.937 381.946 270.924 379.492 278.34 375.684C286.671 371.406 295.652 366.732 303.758 360.762C305.077 359.791 306.319 358.856 307.52 357.952C310.898 355.41 313.945 353.117 317.415 350.978C319.348 349.787 323.499 346.996 326.689 344.851C328.09 343.91 329.305 343.093 330.065 342.591C334.246 339.83 337.054 336.616 339.343 333.828C339.728 333.359 340.094 332.909 340.446 332.475C342.275 330.224 343.746 328.414 345.739 326.648C351.344 321.681 354.733 316.736 358.084 311.847C359.125 310.329 360.162 308.816 361.261 307.309C363.921 303.661 365.756 299.497 367.244 295.949C367.505 295.326 367.755 294.724 367.998 294.14C369.239 291.15 370.281 288.643 371.562 286.387C372.827 284.159 373.44 281.839 373.825 280.098C374.066 279.007 374.197 278.31 374.307 277.719C374.431 277.058 374.529 276.531 374.73 275.738C374.794 275.481 375.019 274.907 375.668 273.851C376.156 273.057 376.682 272.301 377.33 271.37C377.569 271.027 377.825 270.659 378.101 270.258L378.173 270.154C379.781 267.817 382.764 263.483 382.764 258.409C382.764 257.777 383.037 256.705 384.03 254.442C384.155 254.157 384.302 253.835 384.462 253.482C385.283 251.672 386.47 249.053 387.057 246.536C387.426 244.951 387.728 243.537 388.014 242.201C388.471 240.064 388.884 238.129 389.46 236.021C392.846 223.613 394.16 211.315 394.16 198.722C394.16 185.666 392.698 172.909 389.425 160.123L389.263 159.491L388.988 158.9C387.619 155.965 387.004 153.178 386.417 149.884C386.346 149.489 386.275 149.079 386.202 148.655C385.693 145.714 385.071 142.121 383.737 138.487C382.975 136.412 381.871 134.18 381.052 132.524C380.745 131.904 380.478 131.364 380.284 130.943C379.406 129.043 378.96 127.636 378.889 126.082L378.86 125.453L378.72 124.84C376.895 116.87 370.777 104.328 361.214 90.7236C351.522 76.9371 337.896 61.4923 320.49 47.8308L319.922 47.3849L319.275 47.0644C316.886 45.8815 314.475 44.1531 311.801 41.9531C310.473 40.8603 309.143 39.7048 307.733 38.4757L307.486 38.2607C306.172 37.1153 304.786 35.9066 303.373 34.7302C297.479 29.821 289.94 24.4031 280.028 23.7896Z" fill="black" stroke="#C9EB06" stroke-width="14" stroke-linecap="round"></path>
<path d="M56.7659 188.327L45.9287 179.259L46.371 178.375L50.5732 176.827L59.8622 175.057H76.2285L83.3059 173.951H88.1715H105.644L113.827 183.683L117.144 190.539L122.01 202.703L124.443 204.694L126.655 210.444L129.751 222.387L131.741 225.262L133.29 231.897L134.174 236.32L136.828 230.349L142.579 211.329L147.444 199.828L159.387 178.375L168.676 160.239L174.205 150.95L172.657 149.402L161.82 140.998L160.935 138.565L212.025 137.459L218.881 138.565L223.304 149.402L230.603 165.326L234.142 170.413L239.671 156.258L245.642 144.757L265.99 114.9L271.076 108.265L286.337 104.726L312.213 104.063L337.648 105.39L343.177 106.938V113.352V117.554L333.667 129.055L327.474 139.449L318.406 157.806L306.242 180.365L298.059 200.491L288.77 221.06L280.144 234.551L272.182 250.033L268.644 253.793L263.336 269.938L259.133 275.467L254.931 276.13L228.612 275.467L225.958 268.39L219.323 256.889L207.159 240.08L203.842 233.003L194.774 230.349L192.12 231.012L184.6 243.177L176.638 258.216L171.109 271.486L159.387 299.132L153.858 302.449L137.713 305.767L122.452 304.44H113.827L110.731 295.814L107.634 290.064L100.778 277.236L92.5949 260.206L82.8635 240.301L81.5365 233.888L76.892 225.926L69.5935 213.983L66.7184 204.915L59.4199 194.078L56.7659 188.327Z" fill="#C9EB06"></path>
<path d="M107.856 302.671L100.557 300.238L99.6727 297.805L92.5954 279.669L86.4027 267.948L83.0852 263.745L73.1327 242.071L66.0554 225.926L63.8437 223.714L59.1992 218.185L54.5547 208.454L49.4679 197.617L48.1409 190.76L46.1504 181.471L46.8139 179.702L52.7854 185.452L58.0934 189.655L58.9781 192.972L61.4109 197.838L65.1707 204.03L69.1517 212.214L72.4692 218.627L81.3159 233.446L81.7582 237.205L88.3932 252.687L95.2494 265.515L98.5669 272.592L104.317 283.208L107.856 290.507L110.731 294.709L112.943 302.671L113.385 304.219L107.856 302.671Z" fill="#9FBA00"></path>
<path d="M126.212 212.213L123.779 203.808L130.635 192.971L141.251 173.509L153.858 151.392L160.051 139.007L163.589 142.766L168.455 145.642L173.763 150.065V151.834L167.349 163.777L154.521 187.884L146.117 202.703L141.915 213.761L137.049 229.021L134.174 235.435L133.732 230.348L130.857 223.05L126.212 212.213Z" fill="#9FBA00"></path>
<path d="M233.699 170.634L235.469 174.172L236.796 177.711L240.555 188.106L242.988 193.414L244.536 193.856L247.854 182.134L258.912 162.008L265.105 151.613L270.855 140.776L276.606 132.372L284.346 119.765L283.019 119.323L275.721 112.909L271.298 110.919L269.086 110.476L262.451 119.323L248.739 139.007L237.901 159.796L233.699 170.634Z" fill="#9FBA00"></path>
<path d="M227.064 276.131L220.651 274.362L213.573 266.4L204.727 254.457L196.765 241.408L193.005 232.782L192.562 230.571H196.986L203.4 232.782L204.284 234.773L213.573 249.149L220.872 259.322L226.401 270.381L228.613 276.131H227.064Z" fill="#9FBA00"></path>
<path d="M223.739 151.913C224.485 151.917 225.092 151.316 225.097 150.57C225.101 149.825 224.5 149.217 223.754 149.213L223.739 151.913ZM160.493 138.564V137.214C160.275 137.214 160.06 137.267 159.867 137.368L160.493 138.564ZM242.818 196.204C242.818 196.95 243.423 197.554 244.168 197.554C244.914 197.554 245.518 196.95 245.518 196.204H242.818ZM253.08 172.389L254.281 173.006L254.281 173.006L253.08 172.389ZM269.139 143.344L270.37 143.896L270.37 143.896L269.139 143.344ZM280.848 125.277L279.654 124.647L279.654 124.647L280.848 125.277ZM285.614 121.636C286.28 121.302 286.551 120.492 286.217 119.825C285.884 119.158 285.073 118.887 284.406 119.221L285.614 121.636ZM286.337 120.65L286.337 119.3H286.337V120.65ZM276.161 113.13L275.507 114.311L276.161 113.13ZM269.307 110.034L268.135 109.364L267.344 110.747L268.838 111.3L269.307 110.034ZM306.019 104.283L306.033 102.933L306.019 104.283ZM343.174 109.149L344.521 109.053L343.174 109.149ZM222.862 147.632L224.209 147.548L224.209 147.548L222.862 147.632ZM219.323 139.891H217.973V140.125L218.052 140.345L219.323 139.891ZM321.723 151.392L322.931 151.995L322.958 151.942L322.98 151.886L321.723 151.392ZM308.011 177.047L309.163 177.751L309.163 177.751L308.011 177.047ZM281.872 231.712L282.967 232.501L282.967 232.501L281.872 231.712ZM280.804 233.515L282.026 234.09L282.026 234.089L280.804 233.515ZM256.7 275.687L256.77 277.036L256.77 277.036L256.7 275.687ZM219.323 257.109L218.217 257.884L218.217 257.884L219.323 257.109ZM204.063 233.887L205.387 233.622L205.387 233.622L204.063 233.887ZM192.341 230.127L192.474 228.784C191.965 228.733 191.471 228.975 191.198 229.408L192.341 230.127ZM175.311 261.09L176.576 261.561L176.576 261.561L175.311 261.09ZM129.972 305.103L129.862 306.448L129.862 306.448L129.972 305.103ZM104.939 301.37L105.32 300.075L105.32 300.075L104.939 301.37ZM100.336 300.016L99.0528 300.436L99.2739 301.111L99.9547 301.311L100.336 300.016ZM85.5175 267.062L84.5629 268.016L84.5629 268.016L85.5175 267.062ZM49.4673 197.173L48.1208 197.269L48.1208 197.269L49.4673 197.173ZM45.4863 178.816L44.6256 177.776C44.2265 178.107 44.0516 178.636 44.1755 179.139L45.4863 178.816ZM52.1213 184.788L51.2182 185.791L51.2252 185.798L51.2323 185.804L52.1213 184.788ZM56.987 189.211L55.6939 189.599L56.987 189.211ZM92.816 261.09L91.5658 261.6L91.5658 261.6L92.816 261.09ZM107.855 290.284L108.854 289.376L108.854 289.376L107.855 290.284ZM113.606 304.025L113.521 305.372L113.521 305.372L113.606 304.025ZM110.558 303.552L110.205 304.855L110.205 304.855L110.558 303.552ZM160.4 176.819L161.603 177.432L161.603 177.432L160.4 176.819ZM141.97 212.937L140.692 212.504L140.692 212.504L141.97 212.937ZM136.836 229.468L135.555 229.041L135.555 229.041L136.836 229.468ZM133.868 237.362L132.518 237.35C132.512 238.034 133.018 238.615 133.697 238.702C134.375 238.788 135.012 238.354 135.178 237.69L133.868 237.362ZM130.857 224.156L129.791 224.984L129.791 224.984L130.857 224.156ZM100.557 187.442L100.674 188.787L100.674 188.787L100.557 187.442ZM74.9015 188.327L75.4498 189.56L75.4498 189.56L74.9015 188.327ZM174.958 149.408C172.741 146.821 169.993 145.107 167.614 143.488C165.179 141.832 163.079 140.251 161.651 137.869L159.335 139.259C161.095 142.191 163.643 144.053 166.095 145.721C168.603 147.427 170.981 148.917 172.908 151.165L174.958 149.408ZM245.518 196.204C245.518 192.263 246.723 188.343 248.445 184.438C250.182 180.499 252.351 176.763 254.281 173.006L251.879 171.773C250.038 175.358 247.751 179.319 245.975 183.348C244.184 187.409 242.818 191.726 242.818 196.204H245.518ZM254.281 173.006C256.774 168.151 259.636 163.444 262.473 158.639C265.298 153.853 268.089 148.986 270.37 143.896L267.907 142.791C265.692 147.732 262.969 152.487 260.148 157.267C257.337 162.027 254.418 166.827 251.879 171.773L254.281 173.006ZM270.37 143.896C271.745 140.831 273.764 137.985 275.922 135.048C278.053 132.15 280.332 129.147 282.042 125.908L279.654 124.647C278.06 127.668 275.925 130.485 273.747 133.449C271.597 136.373 269.413 139.431 267.907 142.791L270.37 143.896ZM282.042 125.908C282.406 125.219 283.01 124.273 283.701 123.417C284.42 122.526 285.108 121.889 285.614 121.636L284.406 119.221C283.36 119.744 282.371 120.765 281.6 121.721C280.8 122.713 280.099 123.804 279.654 124.647L282.042 125.908ZM286.337 119.3C285.729 119.3 285.067 119.071 284.309 118.585C283.548 118.097 282.774 117.404 281.958 116.592C281.552 116.189 281.151 115.771 280.739 115.345C280.332 114.922 279.914 114.491 279.497 114.082C278.675 113.277 277.775 112.481 276.816 111.949L275.507 114.311C276.134 114.658 276.821 115.241 277.608 116.011C277.994 116.39 278.386 116.795 278.796 117.219C279.201 117.639 279.624 118.079 280.054 118.507C280.907 119.354 281.843 120.212 282.852 120.858C283.865 121.508 285.034 122 286.337 122V119.3ZM276.816 111.949C275.233 111.072 273.47 110.276 272.117 109.705C271.438 109.418 270.855 109.185 270.441 109.023C270.234 108.942 270.069 108.879 269.955 108.835C269.898 108.814 269.854 108.797 269.824 108.786C269.808 108.78 269.796 108.775 269.788 108.772C269.784 108.771 269.781 108.77 269.779 108.769C269.778 108.768 269.777 108.768 269.776 108.768C269.776 108.768 269.775 108.768 269.775 108.767C269.775 108.767 269.775 108.767 269.775 108.767C269.775 108.767 269.775 108.767 269.307 110.034C268.838 111.3 268.838 111.3 268.838 111.3C268.838 111.3 268.838 111.3 268.838 111.3C268.838 111.3 268.838 111.3 268.838 111.3C268.839 111.3 268.839 111.3 268.84 111.3C268.841 111.301 268.844 111.302 268.847 111.303C268.853 111.305 268.863 111.309 268.877 111.314C268.903 111.324 268.944 111.339 268.997 111.359C269.103 111.4 269.26 111.46 269.457 111.537C269.853 111.692 270.413 111.916 271.067 112.192C272.38 112.747 274.044 113.5 275.507 114.311L276.816 111.949ZM270.479 110.704C270.633 110.433 270.869 110.034 271.58 109.543C272.334 109.023 273.664 108.372 276.058 107.752C280.859 106.509 289.674 105.457 306.004 105.633L306.033 102.933C289.631 102.756 280.532 103.805 275.381 105.138C272.799 105.807 271.145 106.563 270.046 107.321C268.906 108.108 268.422 108.86 268.135 109.364L270.479 110.704ZM306.004 105.633C326.512 105.855 335.606 106.3 339.609 107.048C340.598 107.232 341.185 107.42 341.529 107.584C341.855 107.74 341.862 107.825 341.834 107.771C341.818 107.741 341.849 107.761 341.843 108.037C341.839 108.225 341.795 108.778 341.828 109.245L344.521 109.053C344.499 108.746 344.531 108.58 344.542 108.1C344.551 107.71 344.538 107.115 344.225 106.518C343.9 105.897 343.357 105.464 342.69 105.147C342.04 104.837 341.19 104.596 340.105 104.394C335.815 103.593 326.441 103.154 306.033 102.933L306.004 105.633ZM341.828 109.245C341.889 110.093 342.073 111.062 342.204 111.9C342.342 112.79 342.443 113.653 342.407 114.514C342.339 116.148 341.781 117.88 339.667 119.609L341.377 121.699C344.128 119.448 345.007 116.976 345.104 114.626C345.151 113.495 345.017 112.422 344.872 111.486C344.718 110.499 344.571 109.752 344.521 109.053L341.828 109.245ZM286.336 122L340.522 122.004L340.522 119.304L286.337 119.3L286.336 122ZM268.474 109.19C263.432 115.492 255.517 126.239 248.346 137.704C241.202 149.127 234.692 161.424 232.603 170.781L235.238 171.37C237.218 162.503 243.499 150.546 250.635 139.136C257.744 127.77 265.598 117.108 270.582 110.877L268.474 109.19ZM235.119 170.455C232.937 166.238 230.228 161.107 228.037 156.666C226.942 154.446 225.987 152.42 225.297 150.783C224.952 149.964 224.68 149.259 224.492 148.686C224.295 148.087 224.22 147.722 224.209 147.548L221.515 147.716C221.548 148.25 221.716 148.885 221.927 149.529C222.147 150.198 222.449 150.977 222.809 151.832C223.529 153.542 224.512 155.624 225.616 157.861C227.822 162.333 230.554 167.509 232.721 171.696L235.119 170.455ZM211.361 136.329C210.015 136.329 201.245 136.551 190.875 136.772C180.478 136.993 168.439 137.214 160.493 137.214V139.914C168.471 139.914 180.539 139.693 190.932 139.471C201.351 139.25 210.053 139.029 211.361 139.029V136.329ZM159.867 137.368C159.724 137.443 159.606 137.494 159.495 137.539C159.415 137.572 159.221 137.645 159.077 137.714C158.892 137.801 158.677 137.926 158.465 138.127C158.259 138.322 158.107 138.54 157.983 138.761C157.758 139.162 157.546 139.725 157.285 140.47C157.014 141.241 156.645 142.344 156.12 143.877L158.674 144.752C159.21 143.188 159.565 142.126 159.832 141.364C160.108 140.578 160.248 140.242 160.338 140.081C160.372 140.021 160.368 140.043 160.321 140.087C160.267 140.138 160.22 140.16 160.233 140.154C160.285 140.129 160.317 140.119 160.51 140.041C160.672 139.975 160.875 139.888 161.119 139.76L159.867 137.368ZM156.12 143.877C155.629 145.307 153.978 148.709 151.537 153.391C149.12 158.027 145.985 163.815 142.591 169.952C135.803 182.227 127.993 195.869 122.843 204.44L125.158 205.831C130.329 197.224 138.156 183.552 144.954 171.259C148.354 165.112 151.5 159.303 153.931 154.639C156.339 150.02 158.103 146.418 158.674 144.752L156.12 143.877ZM232.67 171.585L242.844 196.576L245.344 195.558L235.171 170.567L232.67 171.585ZM224.209 147.548C224.164 146.822 223.929 146.117 223.65 145.475C223.368 144.827 223.003 144.159 222.637 143.509C221.88 142.166 221.099 140.85 220.595 139.437L218.052 140.345C218.653 142.028 219.579 143.582 220.284 144.834C220.649 145.482 220.953 146.044 221.174 146.551C221.397 147.065 221.497 147.44 221.515 147.716L224.209 147.548ZM220.673 139.891C220.673 138.789 220.083 137.99 219.325 137.487C218.627 137.025 217.751 136.777 216.912 136.627C215.223 136.325 213.1 136.329 211.361 136.329V139.029C213.175 139.029 215.033 139.034 216.437 139.285C217.145 139.411 217.592 139.578 217.833 139.737C218.013 139.857 217.973 139.887 217.973 139.891H220.673ZM339.557 119.709C335.83 123.512 326.732 134.967 320.467 150.898L322.98 151.886C329.1 136.322 337.988 125.168 341.486 121.599L339.557 119.709ZM320.516 150.788C317.563 156.694 310.717 170.03 306.859 176.343L309.163 177.751C313.09 171.325 319.986 157.885 322.931 151.995L320.516 150.788ZM306.859 176.343C305.598 178.407 304.083 181.855 302.36 186.016C300.608 190.248 298.655 195.187 296.433 200.504C292.006 211.096 286.718 222.674 280.777 230.922L282.967 232.501C289.108 223.975 294.498 212.136 298.924 201.545C301.128 196.272 303.145 191.179 304.855 187.048C306.595 182.846 308.032 179.602 309.163 177.751L306.859 176.343ZM279.582 232.941C278.106 236.082 275.957 240.457 273.91 244.205C272.885 246.082 271.897 247.78 271.04 249.082C270.611 249.734 270.228 250.267 269.899 250.665C269.549 251.091 269.337 251.269 269.263 251.315L270.678 253.615C271.15 253.324 271.594 252.856 271.984 252.381C272.396 251.881 272.838 251.261 273.296 250.566C274.211 249.175 275.24 247.403 276.279 245.499C278.362 241.686 280.536 237.259 282.026 234.09L279.582 232.941ZM269.263 251.315C268.858 251.564 268.556 251.919 268.331 252.247C268.097 252.586 267.889 252.979 267.701 253.391C267.324 254.215 266.966 255.247 266.61 256.37C265.874 258.693 265.155 261.37 264.214 264.139C263.283 266.875 262.212 269.453 260.898 271.353C259.579 273.261 258.181 274.26 256.631 274.339L256.77 277.036C259.533 276.894 261.59 275.1 263.119 272.889C264.653 270.67 265.82 267.801 266.77 265.008C267.708 262.248 268.51 259.313 269.184 257.185C269.533 256.082 269.852 255.18 270.156 254.514C270.308 254.182 270.442 253.942 270.554 253.778C270.674 253.604 270.723 253.587 270.678 253.615L269.263 251.315ZM256.631 274.339C249.79 274.69 235.435 274.485 229.086 274.338L229.023 277.037C235.354 277.184 249.81 277.392 256.77 277.036L256.631 274.339ZM230.277 275.114C229.166 272.744 227.346 268.97 225.491 265.342C223.651 261.742 221.73 258.194 220.429 256.335L218.217 257.884C219.394 259.564 221.233 262.945 223.086 266.571C224.925 270.167 226.732 273.912 227.832 276.26L230.277 275.114ZM220.429 256.335C218.832 254.053 215.256 249.183 211.891 244.316C210.223 241.903 208.643 239.542 207.442 237.587C206.841 236.608 206.345 235.746 205.984 235.04C205.604 234.299 205.43 233.838 205.387 233.622L202.739 234.152C202.862 234.765 203.192 235.513 203.581 236.271C203.987 237.064 204.522 237.991 205.141 238.999C206.38 241.017 207.993 243.425 209.67 245.851C212.996 250.66 216.719 255.743 218.217 257.884L220.429 256.335ZM205.387 233.622C205.232 232.848 204.725 232.288 204.248 231.907C203.758 231.517 203.154 231.2 202.535 230.937C201.292 230.41 199.744 230.001 198.283 229.691C196.808 229.378 195.358 229.152 194.281 229.004C193.742 228.93 193.293 228.875 192.978 228.839C192.82 228.82 192.696 228.807 192.61 228.798C192.567 228.793 192.534 228.79 192.511 228.787C192.499 228.786 192.491 228.785 192.484 228.785C192.481 228.784 192.479 228.784 192.477 228.784C192.476 228.784 192.475 228.784 192.475 228.784C192.475 228.784 192.474 228.784 192.474 228.784C192.474 228.784 192.474 228.784 192.341 230.127C192.208 231.471 192.208 231.47 192.208 231.47C192.208 231.47 192.208 231.47 192.208 231.471C192.208 231.471 192.209 231.471 192.209 231.471C192.21 231.471 192.212 231.471 192.214 231.471C192.218 231.472 192.226 231.472 192.235 231.473C192.255 231.475 192.285 231.478 192.324 231.483C192.402 231.491 192.519 231.504 192.668 231.521C192.967 231.555 193.397 231.608 193.914 231.679C194.953 231.821 196.333 232.037 197.722 232.332C199.125 232.63 200.475 232.996 201.48 233.422C201.985 233.637 202.342 233.841 202.566 234.019C202.802 234.207 202.761 234.263 202.739 234.152L205.387 233.622ZM191.198 229.408C188.941 232.998 185.38 238.855 182.027 244.772C178.689 250.661 175.504 256.701 174.046 260.62L176.576 261.561C177.949 257.871 181.031 252.005 184.376 246.103C187.705 240.228 191.244 234.407 193.484 230.846L191.198 229.408ZM174.046 260.62C172.282 265.361 168.584 274.909 165.053 283.35C163.287 287.572 161.57 291.499 160.163 294.402C159.457 295.858 158.843 297.028 158.349 297.842C158.1 298.252 157.902 298.538 157.755 298.716C157.682 298.806 157.642 298.843 157.635 298.849C157.614 298.867 157.704 298.78 157.893 298.723L158.669 301.309C158.997 301.21 159.243 301.027 159.394 300.897C159.56 300.755 159.709 300.591 159.841 300.431C160.105 300.11 160.379 299.701 160.657 299.243C161.217 298.321 161.874 297.061 162.592 295.58C164.033 292.609 165.772 288.628 167.544 284.392C171.091 275.913 174.802 266.33 176.576 261.561L174.046 260.62ZM157.893 298.723C157.486 298.845 157.031 299.066 156.601 299.284C156.122 299.526 155.637 299.783 155.001 300.098C153.772 300.706 152.153 301.436 150.027 302.1C145.781 303.427 139.431 304.518 130.082 303.757L129.862 306.448C139.533 307.235 146.232 306.115 150.833 304.677C153.13 303.959 154.884 303.168 156.198 302.518C156.834 302.204 157.413 301.899 157.819 301.693C158.274 301.463 158.524 301.352 158.669 301.309L157.893 298.723ZM228.989 274.339C227.512 274.411 225.774 274.416 224.156 274.126C222.524 273.834 221.179 273.269 220.313 272.336L218.334 274.173C219.768 275.718 221.777 276.443 223.68 276.784C225.597 277.128 227.575 277.111 229.12 277.036L228.989 274.339ZM220.313 272.336C219.205 271.143 213.658 264.721 207.814 256.452C201.947 248.152 195.9 238.155 193.645 229.776L191.037 230.478C193.426 239.35 199.72 249.678 205.609 258.01C211.519 266.373 217.141 272.889 218.334 274.173L220.313 272.336ZM105.32 300.075L100.717 298.721L99.9547 301.311L104.558 302.665L105.32 300.075ZM101.618 299.595C100.136 295.072 97.6128 287.993 94.8568 281.434C93.479 278.156 92.0351 274.989 90.6265 272.33C89.2359 269.704 87.8191 267.454 86.4721 266.107L84.5629 268.016C85.6045 269.058 86.8656 270.998 88.2405 273.593C89.5974 276.155 91.0066 279.242 92.3676 282.48C95.0891 288.956 97.5869 295.965 99.0528 300.436L101.618 299.595ZM86.4721 266.107C85.8547 265.49 85.0793 264.389 84.176 262.834C83.286 261.302 82.3188 259.411 81.3037 257.282C79.2735 253.023 77.0872 247.881 74.9851 242.874C72.89 237.885 70.8741 233.019 69.204 229.365C68.3703 227.542 67.6056 225.982 66.9463 224.844C66.6188 224.279 66.2942 223.778 65.9785 223.391C65.8206 223.197 65.6415 223.003 65.4419 222.838C65.2545 222.683 64.9662 222.485 64.5891 222.398L63.9819 225.029C63.7845 224.983 63.6944 224.897 63.723 224.92C63.7392 224.933 63.7936 224.984 63.8858 225.097C64.0703 225.323 64.3124 225.684 64.6104 226.198C65.2022 227.219 65.9233 228.683 66.7484 230.488C68.3958 234.092 70.3886 238.902 72.4956 243.92C74.5957 248.921 76.805 254.119 78.8664 258.444C79.8972 260.606 80.8997 262.569 81.8413 264.19C82.7695 265.788 83.6874 267.141 84.5629 268.016L86.4721 266.107ZM64.5891 222.398C64.724 222.429 64.7087 222.467 64.5141 222.305C64.3477 222.165 64.1277 221.945 63.8555 221.629C63.3129 220.998 62.6542 220.095 61.9142 218.977C60.4389 216.747 58.7189 213.78 57.07 210.716C55.4228 207.655 53.8608 204.523 52.7004 201.974C52.1195 200.698 51.6455 199.581 51.3127 198.699C50.9569 197.756 50.8254 197.239 50.8139 197.077L48.1208 197.269C48.1645 197.882 48.4477 198.754 48.7865 199.652C49.1483 200.611 49.6489 201.787 50.2429 203.092C51.4324 205.706 53.022 208.891 54.6924 211.995C56.3609 215.096 58.1243 218.142 59.6624 220.467C60.4291 221.626 61.1595 222.635 61.8093 223.39C62.1332 223.766 62.46 224.106 62.7813 224.375C63.0744 224.62 63.4876 224.915 63.9819 225.029L64.5891 222.398ZM50.8139 197.077C50.7164 195.713 50.0035 192.274 49.1978 188.678C48.3787 185.023 47.4253 181.043 46.7971 178.493L44.1755 179.139C44.8006 181.676 45.7493 185.637 46.5631 189.269C47.3903 192.96 48.0413 196.157 48.1208 197.269L50.8139 197.077ZM44.5832 179.82L51.2182 185.791L53.0244 183.784L46.3894 177.813L44.5832 179.82ZM51.2323 185.804C51.7497 186.257 52.2993 186.631 52.8027 186.955C53.3354 187.299 53.7657 187.558 54.1969 187.858C55.0257 188.436 55.4941 188.933 55.6939 189.599L58.2801 188.823C57.8163 187.278 56.7366 186.337 55.7408 185.643C55.2597 185.308 54.7085 184.972 54.2668 184.687C53.7957 184.383 53.3776 184.093 53.0103 183.772L51.2323 185.804ZM55.6939 189.599C55.8491 190.116 56.1741 190.779 56.5496 191.473C56.9404 192.196 57.4415 193.052 58.0066 193.99C59.1249 195.845 60.572 198.145 61.946 200.398C63.3392 202.683 64.6928 204.976 65.709 206.948C66.2173 207.935 66.6298 208.819 66.9188 209.567C67.2175 210.341 67.3445 210.87 67.3607 211.178L70.057 211.036C70.0179 210.293 69.7649 209.443 69.4375 208.595C69.1004 207.722 68.6407 206.743 68.1092 205.711C67.0459 203.648 65.6497 201.286 64.2512 198.992C62.8336 196.668 61.4473 194.467 60.3189 192.596C59.7607 191.67 59.2852 190.856 58.9245 190.189C58.5485 189.494 58.3473 189.048 58.2801 188.823L55.6939 189.599ZM67.3607 211.178C67.4015 211.953 67.7016 212.838 68.0749 213.703C68.4623 214.601 68.9913 215.617 69.5997 216.695C70.8154 218.849 72.4129 221.363 73.9804 223.852C75.5601 226.36 77.1122 228.846 78.2837 231.003C78.869 232.08 79.3449 233.05 79.6781 233.88C80.0206 234.733 80.1706 235.338 80.1879 235.718L82.8851 235.595C82.847 234.758 82.5617 233.815 82.1837 232.874C81.7963 231.909 81.2667 230.838 80.6563 229.714C79.4363 227.468 77.8369 224.909 76.265 222.413C74.6808 219.898 73.1267 217.45 71.951 215.368C71.3637 214.327 70.8871 213.406 70.554 212.634C70.2068 211.829 70.0714 211.31 70.057 211.036L67.3607 211.178ZM80.1879 235.718C80.255 237.195 80.9373 239.244 81.8239 241.412C82.7336 243.636 83.9415 246.176 85.1998 248.712C87.7515 253.852 90.4568 258.878 91.5658 261.6L94.0662 260.581C92.9083 257.739 90.0845 252.48 87.6183 247.511C86.3678 244.992 85.1948 242.521 84.323 240.389C83.4282 238.202 82.9285 236.55 82.8851 235.595L80.1879 235.718ZM91.5658 261.6C92.8102 264.654 96.3411 271.725 99.6592 278.119C101.325 281.329 102.949 284.391 104.223 286.726C104.86 287.893 105.413 288.884 105.842 289.624C106.056 289.993 106.244 290.307 106.399 290.553C106.533 290.765 106.699 291.019 106.856 291.192L108.854 289.376C108.882 289.406 108.835 289.354 108.684 289.113C108.554 288.907 108.384 288.624 108.178 288.268C107.765 287.558 107.225 286.59 106.593 285.432C105.33 283.119 103.716 280.074 102.056 276.875C98.7227 270.452 95.2546 263.498 94.0662 260.581L91.5658 261.6ZM130.082 303.757C122.01 303.1 116.895 302.879 113.69 302.677L113.521 305.372C116.777 305.577 121.823 305.794 129.862 306.448L130.082 303.757ZM113.69 302.677C112.525 302.604 111.613 302.439 110.911 302.249L110.205 304.855C111.097 305.096 112.19 305.288 113.521 305.372L113.69 302.677ZM106.856 291.192C107.772 292.2 108.784 294.265 109.775 296.835C110.742 299.344 111.615 302.13 112.315 304.419L114.897 303.63C114.196 301.339 113.299 298.471 112.294 295.864C111.313 293.317 110.15 290.802 108.854 289.376L106.856 291.192ZM104.558 302.665C105.41 302.915 106.249 303.29 107.198 303.711C108.114 304.116 109.133 304.564 110.205 304.855L110.911 302.249C110.067 302.02 109.229 301.657 108.291 301.242C107.386 300.841 106.375 300.385 105.32 300.075L104.558 302.665ZM280.777 230.922C280.321 231.555 279.92 232.222 279.582 232.941L282.026 234.089C282.287 233.534 282.6 233.011 282.967 232.501L280.777 230.922ZM172.726 149.683C168.536 158.064 163.464 167.841 159.198 176.205L161.603 177.432C165.856 169.094 170.945 159.283 175.141 150.89L172.726 149.683ZM159.198 176.205C156.192 182.098 152.7 187.887 149.35 193.916C146.022 199.904 142.876 206.06 140.692 212.504L143.249 213.371C145.353 207.162 148.404 201.177 151.71 195.227C154.993 189.319 158.572 183.374 161.603 177.432L159.198 176.205ZM140.692 212.504C139.755 215.268 138.921 218.054 138.098 220.815C137.273 223.583 136.46 226.326 135.555 229.041L138.116 229.895C139.038 227.13 139.864 224.344 140.686 221.586C141.51 218.82 142.33 216.08 143.249 213.371L140.692 212.504ZM135.555 229.041C135.133 230.306 134.588 231.541 134.027 232.88C133.478 234.191 132.921 235.582 132.558 237.035L135.178 237.69C135.487 236.453 135.972 235.224 136.517 233.924C137.05 232.652 137.653 231.284 138.116 229.895L135.555 229.041ZM135.218 237.375C135.233 235.766 135.094 233.176 134.631 230.564C134.177 228.004 133.374 225.193 131.922 223.327L129.791 224.984C130.817 226.303 131.533 228.558 131.973 231.036C132.403 233.463 132.531 235.884 132.518 237.35L135.218 237.375ZM131.922 223.327C131.315 222.546 130.736 221.156 130.176 219.301C129.627 217.484 129.147 215.403 128.659 213.339C128.179 211.308 127.687 209.275 127.124 207.662C126.842 206.856 126.524 206.099 126.152 205.476C125.795 204.881 125.292 204.244 124.566 203.909L123.435 206.361C123.428 206.358 123.582 206.44 123.836 206.864C124.073 207.261 124.321 207.824 124.575 208.552C125.083 210.008 125.545 211.901 126.032 213.961C126.511 215.989 127.013 218.166 127.591 220.081C128.158 221.958 128.85 223.775 129.791 224.984L131.922 223.327ZM124.566 203.909C124.594 203.922 124.538 203.901 124.402 203.762C124.274 203.63 124.117 203.436 123.933 203.169C123.564 202.634 123.15 201.898 122.705 200.998C121.818 199.203 120.875 196.901 119.979 194.585C119.071 192.237 118.268 190.029 117.579 188.231C117.245 187.358 116.943 186.596 116.692 186.032C116.567 185.753 116.442 185.492 116.321 185.279C116.261 185.174 116.185 185.052 116.095 184.936C116.032 184.855 115.847 184.62 115.536 184.465L114.329 186.88C114.182 186.807 114.088 186.723 114.046 186.683C113.999 186.639 113.971 186.604 113.962 186.591C113.944 186.568 113.949 186.57 113.977 186.62C114.031 186.715 114.114 186.881 114.225 187.131C114.445 187.624 114.725 188.327 115.058 189.196C115.703 190.881 116.572 193.262 117.461 195.559C118.362 197.888 119.341 200.285 120.285 202.195C120.756 203.147 121.236 204.014 121.71 204.703C122.145 205.333 122.718 206.03 123.435 206.361L124.566 203.909ZM115.536 184.465C115.726 184.56 115.797 184.665 115.691 184.552C115.63 184.486 115.539 184.378 115.413 184.218C115.164 183.901 114.84 183.455 114.45 182.907C113.687 181.833 112.683 180.377 111.657 178.964C110.629 177.546 109.529 176.101 108.53 175C108.033 174.452 107.527 173.951 107.04 173.577C106.616 173.251 105.959 172.822 105.201 172.822V175.522C104.997 175.522 105.031 175.438 105.396 175.719C105.699 175.951 106.081 176.318 106.531 176.814C107.426 177.8 108.454 179.146 109.472 180.549C110.492 181.956 111.45 183.347 112.25 184.471C112.641 185.022 112.997 185.513 113.289 185.885C113.434 186.069 113.578 186.244 113.712 186.389C113.803 186.486 114.029 186.73 114.329 186.88L115.536 184.465ZM105.201 172.822C104.705 172.822 103.338 172.73 101.403 172.607C99.5083 172.486 97.1451 172.34 94.7508 172.242C92.3611 172.145 89.9158 172.095 87.86 172.17C86.833 172.207 85.8799 172.276 85.0675 172.391C84.2877 172.501 83.5137 172.669 82.9233 172.964L84.1307 175.379C84.3144 175.288 84.7291 175.165 85.4457 175.064C86.1296 174.967 86.9804 174.903 87.9577 174.868C89.9106 174.797 92.2756 174.844 94.641 174.94C97.0018 175.036 99.3384 175.181 101.231 175.301C103.084 175.42 104.592 175.522 105.201 175.522V172.822ZM82.9233 172.964C82.9261 172.963 82.8898 172.981 82.7931 173.008C82.7007 173.035 82.5764 173.064 82.4153 173.093C82.0916 173.153 81.6687 173.207 81.1454 173.254C80.0995 173.348 78.7401 173.408 77.1396 173.455C73.9859 173.547 69.8504 173.583 65.7014 173.735C61.5266 173.888 57.1986 174.159 53.4933 174.735C51.6401 175.023 49.9125 175.392 48.4218 175.871C46.9467 176.346 45.6158 176.957 44.6256 177.776L46.347 179.856C46.9603 179.349 47.924 178.868 49.2489 178.441C50.5583 178.02 52.136 177.678 53.9079 177.403C57.4527 176.852 61.6534 176.585 65.8 176.433C69.9724 176.281 73.951 176.249 77.218 176.154C78.8279 176.107 80.2556 176.045 81.3876 175.943C81.9533 175.892 82.4671 175.829 82.9046 175.749C83.317 175.673 83.7623 175.564 84.1307 175.379L82.9233 172.964ZM114.742 184.336C111.644 184.779 104.468 185.747 100.44 186.097L100.674 188.787C104.785 188.429 112.029 187.451 115.124 187.009L114.742 184.336ZM100.44 186.097C97.9649 186.312 92.1392 186.313 86.5545 186.368C83.7898 186.396 81.1023 186.438 78.9769 186.529C77.9157 186.574 76.9757 186.632 76.2275 186.71C75.854 186.749 75.5115 186.794 75.217 186.848C74.945 186.898 74.6279 186.971 74.3532 187.093L75.4498 189.56C75.4239 189.572 75.4852 189.544 75.7065 189.503C75.9053 189.467 76.171 189.43 76.5059 189.395C77.1746 189.326 78.0523 189.271 79.0922 189.226C81.169 189.137 83.8171 189.096 86.5815 189.068C92.0552 189.014 98.0619 189.014 100.674 188.787L100.44 186.097ZM74.3532 187.093C74.3663 187.087 74.3236 187.106 74.1887 187.138C74.0641 187.167 73.8979 187.198 73.6866 187.23C73.2641 187.294 72.7141 187.354 72.0563 187.408C70.743 187.515 69.0693 187.596 67.264 187.657C63.6557 187.78 59.5925 187.824 56.968 187.861L57.006 190.561C59.6157 190.524 63.7136 190.48 67.3559 190.356C69.1759 190.294 70.8998 190.211 72.277 190.098C72.9644 190.042 73.5828 189.977 74.0918 189.899C74.5574 189.829 75.0677 189.73 75.4498 189.56L74.3532 187.093ZM173.926 151.637L223.739 151.913L223.754 149.213L173.941 148.937L173.926 151.637Z" fill="black"></path>
</g>
<defs>
<clipPath id="clip0_14219_18481">
<rect width="400" height="400" rx="200" fill="white"></rect>
</clipPath>
</defs>
</svg>
