<svg width="134" height="28" viewBox="0 0 134 28" fill="none" xmlns="http://www.w3.org/2000/svg">
<g clip-path="url(#clip0_295_559)">
<path d="M41.9863 14.8916V14.5659C41.9863 13.7474 41.7011 13.1209 41.1309 12.6866C40.5779 12.2356 39.8521 12.0101 38.9534 12.0101C38.2622 12.0101 37.7178 12.127 37.3204 12.3609C36.9402 12.578 36.5773 12.9121 36.2317 13.3632C36.128 13.4968 36.0156 13.5887 35.8946 13.6388C35.7737 13.6889 35.6095 13.714 35.4021 13.714H34.6245C34.4344 13.714 34.2616 13.6471 34.106 13.5135C33.9678 13.3799 33.9073 13.2212 33.9246 13.0374C33.9765 12.5362 34.227 12.0435 34.6763 11.559C35.1429 11.0579 35.7564 10.6486 36.5168 10.3312C37.2771 10.0138 38.0894 9.8551 38.9534 9.8551C40.5606 9.8551 41.8567 10.2894 42.8417 11.1581C43.844 12.0268 44.3452 13.2462 44.3452 14.8165V22.459C44.3452 22.6427 44.276 22.8015 44.1378 22.9351C43.9995 23.0687 43.8354 23.1355 43.6453 23.1355H42.6862C42.4961 23.1355 42.3319 23.0687 42.1937 22.9351C42.0554 22.8015 41.9863 22.6427 41.9863 22.459V21.4317C41.7098 22.033 41.1222 22.5091 40.2236 22.8599C39.325 23.2107 38.4263 23.3862 37.5277 23.3862C36.6464 23.3862 35.8601 23.2358 35.1688 22.9351C34.4776 22.6177 33.9419 22.1917 33.5617 21.6572C33.1988 21.1226 33.0173 20.5212 33.0173 19.853C33.0173 18.6002 33.5012 17.6229 34.4689 16.9213C35.4367 16.203 36.7241 15.7185 38.3313 15.468L41.9863 14.8916ZM41.9863 16.8963L38.9275 17.3724C37.8042 17.5394 36.9315 17.815 36.3094 18.1992C35.6873 18.5667 35.3762 19.0345 35.3762 19.6025C35.3762 20.0201 35.575 20.3959 35.9724 20.73C36.3699 21.0642 36.9747 21.2312 37.787 21.2312C39.0312 21.2312 40.0422 20.8887 40.8198 20.2039C41.5975 19.5189 41.9863 18.6252 41.9863 17.5227V16.8963Z" fill="white"/>
<path d="M50.486 22.459C50.486 22.6427 50.4167 22.8014 50.2785 22.9351C50.1402 23.0687 49.9764 23.1355 49.7859 23.1355H48.8269C48.6369 23.1355 48.4725 23.0687 48.3343 22.9351C48.1961 22.8014 48.1272 22.6427 48.1272 22.459V6.0213C48.1272 5.83753 48.1961 5.67886 48.3343 5.54521C48.4725 5.41155 48.6369 5.34473 48.8269 5.34473H49.7859C49.9764 5.34473 50.1402 5.41155 50.2785 5.54521C50.4167 5.67886 50.486 5.83753 50.486 6.0213V22.459Z" fill="white"/>
<path d="M59.8231 21.2312C61.5511 21.2312 62.7177 20.5797 63.3229 19.2767C63.4435 19.0261 63.5647 18.8508 63.6858 18.7505C63.8064 18.6503 63.9708 18.6002 64.1779 18.6002H64.9559C65.1459 18.6002 65.3098 18.667 65.448 18.8006C65.5867 18.9175 65.6556 19.0595 65.6556 19.2266C65.6556 19.7945 65.4224 20.4043 64.9559 21.0558C64.489 21.7073 63.815 22.2585 62.9339 22.7096C62.0527 23.1606 61.0158 23.3862 59.8231 23.3862C58.5962 23.3862 57.5336 23.1356 56.6349 22.6344C55.7362 22.1332 55.0451 21.4484 54.561 20.5797C54.077 19.6944 53.8096 18.7088 53.7573 17.6229C53.7402 17.4225 53.7317 17.0383 53.7317 16.4703C53.7317 16.0694 53.7402 15.7854 53.7573 15.6183C53.9131 13.9144 54.5093 12.5279 55.5462 11.4588C56.5831 10.3897 58.0086 9.8551 59.8231 9.8551C61.0158 9.8551 62.0437 10.0806 62.9077 10.5317C63.7893 10.966 64.4548 11.5089 64.9037 12.1604C65.3706 12.7952 65.6209 13.3966 65.6556 13.9645C65.6727 14.1483 65.6038 14.307 65.448 14.4406C65.3098 14.5743 65.1459 14.6411 64.9559 14.6411H64.1779C63.9708 14.6411 63.8064 14.591 63.6858 14.4907C63.5647 14.3905 63.4435 14.2151 63.3229 13.9645C62.7177 12.6615 61.5511 12.0101 59.8231 12.0101C58.8726 12.0101 58.0433 12.3191 57.3346 12.9372C56.6263 13.5553 56.2202 14.4907 56.1162 15.7436C56.0991 15.9274 56.0905 16.228 56.0905 16.6457C56.0905 17.0299 56.0991 17.3139 56.1162 17.4977C56.2373 18.7505 56.6434 19.686 57.3346 20.3041C58.0433 20.9222 58.8726 21.2312 59.8231 21.2312Z" fill="white"/>
<path d="M80.734 22.459C80.734 22.6427 80.6651 22.8014 80.5264 22.9351C80.3882 23.0687 80.2243 23.1355 80.0343 23.1355H79.0748C78.8848 23.1355 78.721 23.0687 78.5827 22.9351C78.444 22.8014 78.3752 22.6427 78.3752 22.459V15.8438C78.3752 14.5909 78.0555 13.6387 77.4161 12.9872C76.7768 12.3358 75.8866 12.01 74.7462 12.01C73.6228 12.01 72.7326 12.3358 72.0762 12.9872C71.4368 13.6387 71.1172 14.5909 71.1172 15.8438V22.459C71.1172 22.6427 71.0478 22.8014 70.9096 22.9351C70.7714 23.0687 70.607 23.1355 70.417 23.1355H69.458C69.268 23.1355 69.1036 23.0687 68.9654 22.9351C68.8272 22.8014 68.7583 22.6427 68.7583 22.459V6.0213C68.7583 5.83753 68.8272 5.67886 68.9654 5.54521C69.1036 5.41155 69.268 5.34473 69.458 5.34473H70.417C70.607 5.34473 70.7714 5.41155 70.9096 5.54521C71.0478 5.67886 71.1172 5.83753 71.1172 6.0213V11.559C71.4972 11.0746 72.0159 10.6736 72.6723 10.3562C73.3463 10.0221 74.1671 9.85506 75.1347 9.85506C76.2234 9.85506 77.1915 10.0806 78.0384 10.5316C78.8848 10.9827 79.5418 11.6341 80.0082 12.4861C80.4922 13.3214 80.734 14.3153 80.734 15.4679V22.459Z" fill="white"/>
<path d="M89.8174 9.8551C91.6666 9.8551 93.1268 10.4231 94.1984 11.559C95.27 12.695 95.8058 14.2402 95.8058 16.1946V16.8712C95.8058 17.055 95.7364 17.2136 95.5982 17.3473C95.46 17.4809 95.2956 17.5477 95.1056 17.5477H86.1884V17.6981C86.2231 18.8006 86.5689 19.6693 87.2254 20.3041C87.8994 20.9222 88.7634 21.2312 89.8174 21.2312C90.6815 21.2312 91.3469 21.1226 91.8134 20.9054C92.2974 20.6883 92.7297 20.3792 93.1097 19.9783C93.2479 19.8447 93.369 19.7528 93.4726 19.7027C93.5937 19.6526 93.749 19.6275 93.939 19.6275H94.7171C94.9242 19.6275 95.0971 19.6943 95.2353 19.828C95.3735 19.9616 95.4338 20.1203 95.4167 20.3041C95.3474 20.7551 95.0885 21.2228 94.6392 21.7073C94.2069 22.175 93.5761 22.5759 92.7468 22.9101C91.9345 23.2274 90.9584 23.3862 89.8174 23.3862C88.7116 23.3862 87.7265 23.1439 86.8625 22.6595C85.9984 22.1583 85.3073 21.4734 84.7886 20.6048C84.2875 19.7361 83.9854 18.7589 83.8814 17.673C83.8472 17.1719 83.8296 16.7877 83.8296 16.5204C83.8296 16.2531 83.8472 15.8689 83.8814 15.3677C83.9854 14.332 84.2875 13.3966 84.7886 12.5613C85.3073 11.7261 85.9899 11.0662 86.8368 10.5818C87.7008 10.0973 88.6945 9.8551 89.8174 9.8551ZM93.4726 15.4429V15.3677C93.4726 14.3487 93.1358 13.5386 92.4618 12.9372C91.8048 12.3191 90.9237 12.0101 89.8174 12.0101C88.8152 12.0101 87.9597 12.3191 87.2515 12.9372C86.5599 13.5553 86.206 14.3654 86.1884 15.3677V15.4429H93.4726Z" fill="white"/>
<path d="M101.292 11.559C101.706 11.0412 102.173 10.6319 102.692 10.3312C103.21 10.0138 103.901 9.8551 104.765 9.8551C106.787 9.8551 108.204 10.5818 109.017 12.0351C109.518 11.3335 110.088 10.7989 110.728 10.4314C111.367 10.0472 112.205 9.8551 113.242 9.8551C114.935 9.8551 116.188 10.3479 117 11.3335C117.83 12.3191 118.245 13.714 118.245 15.5181V22.459C118.245 22.6427 118.176 22.8015 118.037 22.9351C117.899 23.0687 117.735 23.1355 117.545 23.1355H116.586C116.396 23.1355 116.231 23.0687 116.093 22.9351C115.955 22.8015 115.886 22.6427 115.886 22.459V15.7687C115.886 13.2629 114.866 12.0101 112.827 12.0101C111.894 12.0101 111.151 12.3107 110.598 12.9121C110.045 13.5135 109.768 14.4072 109.768 15.5933V22.459C109.768 22.6427 109.699 22.8015 109.561 22.9351C109.423 23.0687 109.258 23.1355 109.068 23.1355H108.109C107.919 23.1355 107.755 23.0687 107.617 22.9351C107.479 22.8015 107.409 22.6427 107.409 22.459V15.7687C107.409 13.2629 106.39 12.0101 104.351 12.0101C103.417 12.0101 102.674 12.3107 102.122 12.9121C101.568 13.5135 101.292 14.4072 101.292 15.5933V22.459C101.292 22.6427 101.223 22.8015 101.085 22.9351C100.946 23.0687 100.782 23.1355 100.592 23.1355H99.633C99.4425 23.1355 99.2787 23.0687 99.1404 22.9351C99.0022 22.8015 98.9329 22.6427 98.9329 22.459V10.7822C98.9329 10.5985 99.0022 10.4398 99.1404 10.3061C99.2787 10.1725 99.4425 10.1057 99.633 10.1057H100.592C100.782 10.1057 100.946 10.1725 101.085 10.3061C101.223 10.4398 101.292 10.5985 101.292 10.7822V11.559Z" fill="white"/>
<path d="M125.505 27.2951C125.349 27.696 125.099 27.8965 124.753 27.8965H123.69C123.518 27.8965 123.37 27.838 123.25 27.7211C123.128 27.6041 123.068 27.4622 123.068 27.2951C123.068 27.2283 123.077 27.1698 123.094 27.1197L125.582 21.8827L120.45 10.8825C120.433 10.8324 120.424 10.7739 120.424 10.7071C120.424 10.54 120.485 10.398 120.605 10.2811C120.726 10.1642 120.873 10.1057 121.046 10.1057H122.109C122.454 10.1057 122.705 10.3061 122.861 10.7071L126.852 19.2266L130.897 10.7071C131.052 10.3061 131.303 10.1057 131.648 10.1057H132.711C132.884 10.1057 133.031 10.1642 133.151 10.2811C133.273 10.398 133.333 10.54 133.333 10.7071C133.333 10.7739 133.324 10.8324 133.307 10.8825L125.505 27.2951Z" fill="white"/>
<path d="M23.2161 14.8461L14.512 0.341285C14.4699 0.269662 14.4089 0.210001 14.3351 0.168321C14.2613 0.126641 14.1775 0.104417 14.0919 0.103891C14.0064 0.103365 13.9222 0.124556 13.8479 0.165326C13.7736 0.206095 13.7118 0.265001 13.6687 0.3361L11.0619 4.68237C10.9766 4.82461 10.9316 4.98603 10.9316 5.1503C10.9316 5.31456 10.9766 5.47598 11.0619 5.61822L16.7375 15.0807C16.823 15.2231 16.9459 15.3414 17.094 15.4235C17.2421 15.5057 17.41 15.5488 17.5809 15.5487H22.7944C22.8798 15.5484 22.9636 15.5266 23.0374 15.4855C23.1113 15.4443 23.1726 15.3852 23.2153 15.3141C23.258 15.243 23.2805 15.1623 23.2806 15.0802C23.2808 14.9981 23.2585 14.9173 23.2161 14.8461Z" fill="white"/>
<path d="M0.400369 22.4269L9.10441 7.92206C9.14711 7.85099 9.20853 7.792 9.28244 7.75098C9.3563 7.70996 9.44009 7.68835 9.5254 7.68835C9.61071 7.68835 9.69455 7.70996 9.76841 7.75098C9.84232 7.792 9.90369 7.85099 9.94639 7.92206L12.5545 12.2644C12.6399 12.4069 12.6848 12.5685 12.6848 12.733C12.6848 12.8975 12.6399 13.0591 12.5545 13.2016L6.87889 22.6641C6.79377 22.8064 6.67108 22.9247 6.52326 23.0069C6.37544 23.0891 6.20767 23.1322 6.03691 23.132H0.822032C0.736127 23.1324 0.651643 23.1109 0.577169 23.0697C0.502694 23.0285 0.440894 22.9691 0.39805 22.8974C0.355207 22.8258 0.332849 22.7445 0.333257 22.6619C0.333666 22.5792 0.356819 22.4981 0.400369 22.4269Z" fill="white"/>
<path d="M9.94506 23.1289H27.3532C27.4385 23.1288 27.5224 23.1071 27.5963 23.0659C27.6703 23.0248 27.7316 22.9656 27.7742 22.8944C27.8168 22.8232 27.8392 22.7424 27.8391 22.6603C27.8389 22.5781 27.8163 22.4974 27.7735 22.4263L25.1694 18.0814C25.084 17.939 24.961 17.8207 24.813 17.7386C24.6649 17.6564 24.497 17.6133 24.3261 17.6134H12.9748C12.8039 17.6133 12.636 17.6564 12.488 17.7386C12.3399 17.8207 12.217 17.939 12.1315 18.0814L9.52478 22.4263C9.48193 22.4974 9.45932 22.5781 9.45923 22.6603C9.45909 22.7424 9.48141 22.8232 9.52402 22.8944C9.56663 22.9656 9.628 23.0248 9.70191 23.0659C9.77582 23.1071 9.85965 23.1288 9.94506 23.1289Z" fill="white"/>
</g>
<defs>
<clipPath id="clip0_295_559">
<rect width="133" height="28" fill="white" transform="translate(0.333252)"/>
</clipPath>
</defs>
</svg>
