<svg width="74" height="28" viewBox="0 0 74 28" fill="none" xmlns="http://www.w3.org/2000/svg">
<mask id="mask0_645_1735" style="mask-type:luminance" maskUnits="userSpaceOnUse" x="0" y="0" width="74" height="28">
<path d="M73.25 0H0.25V28H73.25V0Z" fill="white"/>
</mask>
<g mask="url(#mask0_645_1735)">
<path d="M12.3585 8.63945C12.4422 4.52773 10.0951 0.944832 8.8726 0.0837281C8.86704 0.0781833 8.75816 0.0200451 8.7665 0.180639C8.7665 0.183397 8.76372 0.183397 8.76372 0.18617C8.63816 7.95283 4.61357 10.0461 2.4283 12.8924C-2.42794 19.2219 1.62447 26.4432 6.87421 27.8109C6.96361 27.8331 7.20639 27.9051 7.66692 27.9992C7.90691 28.0491 7.97671 27.8469 7.80082 27.5451C7.17288 26.4625 6.05647 24.635 5.83608 22.287C5.3337 16.8352 12.2608 13.424 12.3585 8.63945Z" fill="white"/>
<path d="M15.0039 11.2726C14.9621 11.2422 14.9035 11.2449 14.898 11.2975C14.7863 12.286 13.7564 14.335 12.4 16.251C7.83395 22.7107 10.1338 25.6401 11.92 27.6725C12.2493 28.0491 12.4139 27.966 12.587 27.6975C12.7489 27.4427 12.9944 27.1187 14.0495 26.6231C14.2141 26.5456 18.1997 24.4469 18.6322 19.6678C19.0481 15.0438 16.0589 12.1198 15.0039 11.2726Z" fill="#008CD6"/>
<path d="M38.7135 10.0958V27.0938H35.0377V20.2271H27.9738V27.0938H24.2061V10.0958H27.9738V16.9626H35.0377V10.0958H38.7135Z" fill="white"/>
<path d="M55.7081 10.0958V13.4572H53.9581H50.4304V27.091H46.6487V13.4572H43.2157H41.4658V10.0958H55.7081Z" fill="white"/>
<path fill-rule="evenodd" clip-rule="evenodd" d="M69.0933 27.1104L64.7728 21.1961L60.486 27.0855L56.2939 27.091L62.649 18.4135L56.6512 10.0958H60.8404L73.2657 27.1104H69.0933Z" fill="white"/>
<path d="M65.9473 13.9003L68.021 16.7578L72.9332 10.0931H68.7662L65.9473 13.9003Z" fill="#008CD6"/>
</g>
</svg>
