<svg width="72" height="28" viewBox="0 0 72 28" fill="none" xmlns="http://www.w3.org/2000/svg">
<g clip-path="url(#clip0_295_573)">
<mask id="mask0_295_573" style="mask-type:luminance" maskUnits="userSpaceOnUse" x="0" y="0" width="72" height="28">
<path d="M72 0H0V28H72V0Z" fill="white"/>
</mask>
<g mask="url(#mask0_295_573)">
<path d="M11.9427 8.63945C12.0252 4.52773 9.71024 0.944832 8.50448 0.0837281C8.49899 0.0781833 8.39161 0.0200451 8.39984 0.180639C8.39984 0.183397 8.3971 0.183397 8.3971 0.18617C8.27326 7.95283 4.30379 10.0461 2.14846 12.8924C-2.64126 19.2219 1.35564 26.4432 6.53346 27.8109C6.62165 27.8331 6.8611 27.9051 7.31531 27.9992C7.55202 28.0491 7.62087 27.8469 7.44738 27.5451C6.82804 26.4625 5.72693 24.635 5.50955 22.287C5.01406 16.8352 11.8462 13.424 11.9427 8.63945Z" fill="white"/>
<path d="M14.5523 11.2726C14.511 11.2422 14.4533 11.2449 14.4478 11.2975C14.3377 12.286 13.3219 14.335 11.984 16.251C7.48055 22.7107 9.74889 25.6401 11.5106 27.6725C11.8354 28.0491 11.9978 27.966 12.1685 27.6975C12.3281 27.4427 12.5703 27.1187 13.611 26.6231C13.7733 26.5456 17.7043 24.4469 18.1309 19.6678C18.5411 15.0438 15.5928 12.1198 14.5523 11.2726Z" fill="white"/>
<path d="M37.9368 10.0958V27.0938H34.3115V20.2271H27.3443V27.0938H23.6282V10.0958H27.3443V16.9626H34.3115V10.0958H37.9368Z" fill="white"/>
<path d="M54.698 10.0958V13.4572H52.9721H49.4926V27.091H45.7627V13.4572H42.3768H40.6509V10.0958H54.698Z" fill="white"/>
<path fill-rule="evenodd" clip-rule="evenodd" d="M67.9001 27.1104L63.6388 21.1961L59.4107 27.0855L55.2761 27.091L61.5441 18.4135L55.6284 10.0958H59.7603L72.0154 27.1104H67.9001Z" fill="white"/>
<path d="M64.7976 13.9003L66.843 16.7578L71.6878 10.0931H67.5779L64.7976 13.9003Z" fill="white"/>
</g>
</g>
<defs>
<clipPath id="clip0_295_573">
<rect width="72" height="28" fill="white"/>
</clipPath>
</defs>
</svg>
