<svg width="104" height="16" viewBox="0 0 104 16" fill="none" xmlns="http://www.w3.org/2000/svg">
<g clip-path="url(#clip0_645_1772)">
<path d="M24.6236 11.2522L19.2203 1.83035C18.041 -0.131805 15.1368 -0.149482 13.9927 1.91874L8.3252 11.7118C7.26915 13.5149 8.57162 15.7599 10.7013 15.7599H22.0892C24.2189 15.7775 25.8206 13.4442 24.6236 11.2522Z" fill="#003087"/>
<path d="M16.8271 11.9947L16.4927 11.4113C16.1759 10.8633 15.4894 9.69664 15.4894 9.69664L10.9132 1.70661C9.7339 -0.0610955 6.91773 -0.220192 5.73847 2.0248L0.405366 11.2876C-0.703497 13.232 0.616581 15.7599 3.01032 15.7775H14.3278H19.1504H22.0194C19.0976 15.7952 18.1648 14.2573 16.8271 11.9947Z" fill="#1877F2"/>
<path d="M16.8265 11.9594L16.4921 11.376C16.1753 10.8281 15.4889 9.66137 15.4889 9.66137L12.5319 4.42896L8.29005 11.7119C7.23399 13.515 8.53646 15.76 10.6662 15.76H14.3096H19.1323H22.0189C19.0795 15.7423 18.1642 14.2397 16.8265 11.9594Z" fill="url(#paint0_linear_645_1772)"/>
<path d="M94.9708 4.40116C95.7627 3.65872 97.1531 3.30517 99.1773 3.30517H103.912V0.600586H98.3149C96.9772 0.600586 95.8507 0.742008 94.9708 1.02484C94.1081 1.30767 93.3513 1.74959 92.7001 2.36829C92.0136 3.04002 91.468 3.87084 91.0809 4.86075C90.6937 5.86834 90.5 6.96432 90.5 8.11334C90.5 9.20932 90.6937 10.2699 91.0809 11.2422C91.468 12.2144 92.0136 13.0629 92.7001 13.7346C93.3338 14.3533 94.0906 14.7953 94.9355 15.0781C95.7979 15.3609 96.9419 15.5024 98.3149 15.5024H103.912V12.8331H99.1773C98.1036 12.8331 97.3644 12.7978 96.9419 12.7094C96.5019 12.621 96.0972 12.4796 95.7627 12.2674C95.0939 11.8432 94.5834 11.2952 94.249 10.6058C93.9322 9.93406 93.7738 9.08558 93.7738 8.09566C93.7738 6.39866 94.1787 5.14359 94.9708 4.40116Z" fill="white"/>
<path d="M53.7666 15.5376H66.9674V12.9214H56.9876V9.19153H65.7001V6.71674H56.9876V3.25204H66.9674V0.618164H53.7666V15.5376Z" fill="white"/>
<path d="M70.2588 0.618164L76.4369 8.07787L70.2588 15.5376H74.2543L79.1298 9.63347V6.53997L74.2543 0.618164H70.2588Z" fill="white"/>
<path d="M85.2544 0.618164L80.3789 6.53997V9.63347L85.2544 15.5376H89.2499L83.0543 8.07787L89.2499 0.618164H85.2544Z" fill="white"/>
<path d="M40.8301 7.97182L34.8985 0.618164H31.8359V15.5376H35.0569V5.58542L40.1964 11.7724H41.446L46.5855 5.5324V15.5376H49.8065V0.618164H46.7792L40.8301 7.97182Z" fill="white"/>
</g>
<defs>
<linearGradient id="paint0_linear_645_1772" x1="6.77614" y1="8.41117" x2="19.9388" y2="13.2543" gradientUnits="userSpaceOnUse">
<stop stop-color="#003087" stop-opacity="0"/>
<stop offset="1" stop-color="#003087"/>
</linearGradient>
<clipPath id="clip0_645_1772">
<rect width="104" height="16" fill="white"/>
</clipPath>
</defs>
</svg>
