<svg width="201" height="26" viewBox="0 0 201 26" fill="none" xmlns="http://www.w3.org/2000/svg">
<mask id="mask0_312_711" style="mask-type:luminance" maskUnits="userSpaceOnUse" x="0" y="0" width="201" height="26">
<path d="M0 0H200.872V25.8208H0V0Z" fill="white"/>
</mask>
<g mask="url(#mask0_312_711)">
<path d="M19.6577 8.15604C19.6577 13.4097 16.2985 16.4069 10.3879 16.4069H7.48464C5.94698 16.4069 4.89673 15.5611 4.89673 14.0453C4.89673 12.5296 5.94698 11.6837 7.48464 11.6837H9.86394C12.4519 11.6837 13.9216 10.5201 13.9216 8.15846C13.9216 5.79686 12.3475 4.73839 9.86394 4.73839H5.73597V8.58142C5.73597 12.2484 1.67834 11.2608 1.67834 14.0453C1.67834 16.8298 5.73597 15.913 5.73597 19.5092V25.396H0V0.0126448H10.3879C16.4391 0.0126448 19.6577 3.29106 19.6577 8.15604ZM19.5848 15.9469C19.5848 10.1653 23.434 6.00444 29.3446 6.00444C35.2552 6.00444 39.0339 9.9526 39.0339 15.9469C39.0339 21.9413 35.2576 25.8186 29.3106 25.8186C23.8535 25.8186 19.5874 22.0464 19.5874 15.9469H19.5848ZM29.3082 21.2348C31.7917 21.2348 33.4362 19.2595 33.4362 15.9469C33.4362 13.2333 32.2816 10.6223 29.3082 10.6223C26.7906 10.6223 25.1803 12.632 25.1803 15.9469C25.1803 19.262 26.8586 21.2348 29.3082 21.2348ZM46.45 0.0127869H40.9251V25.3959H46.45V0.0127869ZM86.8231 19.3306H92.1734C92.2778 20.9174 93.328 21.9049 95.3216 21.9049C97.1407 21.9049 97.9798 21.13 97.9798 20.179C97.9798 18.8393 96.6847 18.4873 94.2374 17.9934C92.5931 17.6414 91.2639 17.2528 90.3205 16.7956C88.3608 15.9496 87.3809 14.5758 87.3809 12.3193C87.3809 8.47614 90.2841 6.04379 95.3555 6.04379C100.427 6.04379 103.051 8.19511 103.401 12.1433H98.1544C98.0161 10.7694 97.1043 9.92348 95.3216 9.92348C93.7111 9.92348 92.8041 10.5591 92.8041 11.6494C92.8041 12.8841 94.0288 13.1652 96.4421 13.6591C98.1544 14.011 99.52 14.3997 100.534 14.8227C102.493 15.6686 103.541 17.0792 103.541 19.3723C103.541 23.3913 100.602 25.8238 95.2877 25.8238C89.9736 25.8238 87.1045 23.4622 86.8231 19.3356V19.3306ZM167.316 15.9808C167.316 10.0573 170.954 6.03825 176.725 6.03825C182.181 6.03825 185.714 9.73949 185.714 15.5211C185.714 16.0517 185.643 16.79 185.573 17.3548H172.737C173.053 20.2101 174.487 21.5156 176.829 21.5156C178.577 21.5156 179.696 20.7406 180.115 19.4352H185.502C184.874 23.5594 181.131 25.8159 176.722 25.8159C171.091 25.8159 167.315 21.936 167.315 15.9783L167.316 15.9808ZM180.292 13.8294C180.081 11.3261 178.789 9.95217 176.691 9.95217C174.592 9.95217 173.194 11.1502 172.774 13.8294H180.295H180.292ZM66.2561 25.4053H59.5184L54.0032 17.8218V25.4053H48.4903V0H54.0032V15.2133L61.2987 6.27069H67.7841L59.2371 16.2058L66.2561 25.4053Z" fill="white"/>
<path d="M79.8331 6.27796V7.68623C79.7991 7.64716 79.7677 7.60553 79.7337 7.56887C78.7781 6.55927 77.3228 6.00432 75.1061 6.00432C69.1955 6.00432 65.3464 10.1652 65.3464 15.9468C65.3464 22.0463 69.6125 25.8185 75.0697 25.8185C77.3859 25.8185 78.875 25.2269 79.8331 24.1536V25.4053H85.3459V6.27811L79.8331 6.27796ZM75.0697 21.2346C72.6201 21.2346 70.9417 19.2619 70.9417 15.9468C70.9417 12.6319 72.5521 10.6222 75.0697 10.6222C78.0431 10.6222 79.1977 13.2308 79.1977 15.9468C79.1977 19.2594 77.5533 21.2346 75.0697 21.2346ZM200.872 6.46124L199.579 11.8201C199.112 11.6929 198.63 11.6287 198.146 11.6293C195.102 11.6293 192.633 12.1011 192.633 15.1717V25.3563H187.12V6.27058H192.633V7.45862C194.214 6.57618 196.033 6.07252 197.968 6.07252C198.973 6.07252 199.946 6.20707 200.869 6.46124H200.872ZM131.841 6.27796V7.68623C131.807 7.64716 131.776 7.60553 131.742 7.56887C130.786 6.55927 129.331 6.00432 127.114 6.00432C121.203 6.00432 117.354 10.1652 117.354 15.9468C117.354 22.0463 121.621 25.8185 127.078 25.8185C129.394 25.8185 130.883 25.2269 131.841 24.1536V25.4053H137.354V6.27811L131.841 6.27796ZM127.078 21.2346C124.628 21.2346 122.95 19.2619 122.95 15.9468C122.95 12.6319 124.56 10.6222 127.078 10.6222C130.051 10.6222 131.206 13.2308 131.206 15.9468C131.206 19.2594 129.561 21.2346 127.078 21.2346ZM151.849 6.15294L151.903 6.16288C148.964 6.16288 147.285 7.53918 145.99 9.65626C145.354 10.6879 144.896 11.3259 144.152 11.3137C143.408 11.3015 142.803 10.5853 142.889 9.80771C142.974 9.03055 143.529 8.61725 144.152 8.17241C144.826 7.69077 145.229 7.10641 145.229 6.27285H139.716V25.3586H145.229V15.1739C145.229 12.1034 147.696 11.6315 150.742 11.6315C151.236 11.6315 151.717 11.6976 152.175 11.8222L153.468 6.46352C152.943 6.31931 152.403 6.21914 151.852 6.15549L151.849 6.15294ZM109.654 25.3935H115.993V19.8245H111.436C111.321 19.8246 111.208 19.8019 111.102 19.7577C110.996 19.7135 110.9 19.6486 110.819 19.5669C110.738 19.4851 110.673 19.3881 110.629 19.2813C110.586 19.1744 110.563 19.06 110.563 18.9444V10.6227H115.991V6.27114H110.563V1.04443H105.038L105.026 20.7242C105.026 23.3009 107.097 25.3935 109.654 25.3935ZM159.481 25.3935H165.819V19.8245H161.262C161.148 19.8245 161.034 19.8018 160.928 19.7575C160.822 19.7133 160.726 19.6484 160.645 19.5667C160.564 19.485 160.5 19.3879 160.456 19.2811C160.412 19.1744 160.39 19.0599 160.39 18.9444V10.6227H165.818V6.27114H160.39V1.04443H154.864L154.853 20.7242C154.853 23.3009 156.924 25.3935 159.481 25.3935Z" fill="white"/>
</g>
</svg>
