<svg width="147" height="28" viewBox="0 0 147 28" fill="none" xmlns="http://www.w3.org/2000/svg">
<g clip-path="url(#clip0_295_570)">
<path d="M23.3961 0L14.4986 5.02244V20.6977L9.58953 23.4948L4.65038 20.6955V15.0991L9.58953 12.327L12.7654 14.1372V9.60933L9.56183 7.82176L0.666748 12.9009V22.9481L9.59184 28L18.4869 22.9481V7.27505L23.426 4.47573L28.3629 7.27505V12.8465L23.426 15.6708L20.2226 13.8446V18.3498L23.3961 20.1488L32.3789 15.1263V5.02244L23.3961 0Z" fill="white"/>
<path fill-rule="evenodd" clip-rule="evenodd" d="M75.5963 21.7617H79.5846V0.274536H75.5963V21.7617ZM49.9566 6.48794C51.8469 6.48794 53.414 7.23427 54.6534 8.72467C55.8951 10.2151 56.5136 12.0639 56.5136 14.2712C56.5136 16.4784 55.8928 18.3272 54.6534 19.8176C53.4117 21.3079 51.8469 22.0544 49.9566 22.0544C48.618 22.0544 47.4547 21.6483 46.4716 20.8339C45.5068 20.0014 44.7983 18.8785 44.3435 17.4652V27.5691H40.3552V6.77831H44.3435V11.0748C44.7959 9.66156 45.5068 8.54772 46.4716 7.73561C47.457 6.90307 48.618 6.48794 49.9566 6.48794ZM48.5071 18.4815C49.5897 18.4815 50.5059 18.0844 51.2537 17.2905C52.0015 16.4784 52.3754 15.4712 52.3754 14.2712C52.3754 13.0712 52.0015 12.1025 51.2537 11.3085C50.5059 10.4964 49.5897 10.088 48.5071 10.088C47.3047 10.088 46.3123 10.485 45.5229 11.279C44.7359 12.073 44.3413 13.0688 44.3413 14.2689C44.3413 15.4689 44.7359 16.4761 45.5229 17.2882C46.31 18.0822 47.3047 18.4792 48.5071 18.4792V18.4815ZM57.573 14.2712C57.573 16.4784 58.3509 18.3272 59.9064 19.8176C61.4621 21.3079 63.403 22.0544 65.7273 22.0544C68.0514 22.0544 69.9925 21.3079 71.5481 19.8176C73.1036 18.3272 73.8815 16.4784 73.8815 14.2712C73.8815 12.0639 73.1036 10.2151 71.5481 8.72467C69.9925 7.23427 68.0514 6.48794 65.7273 6.48794C63.403 6.48794 61.4621 7.23427 59.9064 8.72467C58.3509 10.2151 57.573 12.0639 57.573 14.2712ZM62.8607 17.2905C62.0921 16.4784 61.709 15.4712 61.709 14.2712C61.709 13.0712 62.0921 12.1025 62.8607 11.3085C63.6293 10.4964 64.5848 10.088 65.7273 10.088C66.8698 10.088 67.8253 10.485 68.5938 11.279C69.3623 12.073 69.7455 13.0688 69.7455 14.2689C69.7455 15.4689 69.3623 16.4761 68.5938 17.2882C67.8253 18.0822 66.8698 18.4792 65.7273 18.4792C64.5848 18.4792 63.6293 18.0822 62.8607 17.2882V17.2905ZM116.43 19.8176C114.874 18.3272 114.096 16.4784 114.096 14.2712C114.096 12.0639 114.874 10.2151 116.43 8.72467C117.985 7.23427 119.926 6.48794 122.25 6.48794C124.574 6.48794 126.515 7.23427 128.071 8.72467C129.627 10.2151 130.405 12.0639 130.405 14.2712C130.405 16.4784 129.627 18.3272 128.071 19.8176C126.515 21.3079 124.574 22.0544 122.25 22.0544C119.926 22.0544 117.988 21.3079 116.43 19.8176ZM118.23 14.2712C118.23 15.4712 118.613 16.4784 119.381 17.2905C120.151 18.0844 121.106 18.4815 122.248 18.4815C123.391 18.4815 124.347 18.0844 125.115 17.2905C125.884 16.4784 126.266 15.4712 126.266 14.2712C126.266 13.0712 125.884 12.073 125.115 11.2813C124.347 10.4873 123.391 10.0903 122.248 10.0903C121.106 10.0903 120.151 10.4964 119.381 11.3108C118.613 12.1047 118.23 13.0916 118.23 14.2734V14.2712ZM141.019 6.48794C142.713 6.48794 144.073 7.06867 145.095 8.23014C146.139 9.39161 146.66 10.8729 146.66 12.6718V21.7594H142.671V13.3683C142.671 12.3996 142.358 11.6056 141.725 10.9864C141.095 10.3671 140.308 10.0563 139.362 10.0563C138.298 10.0563 137.433 10.3671 136.764 10.9864C136.094 11.6056 135.759 12.3996 135.759 13.3683V21.7594H131.771V6.77831H135.759V10.6121C136.154 9.3349 136.814 8.32769 137.739 7.59269C138.685 6.8577 139.777 6.4902 141.019 6.4902V6.48794ZM89.1652 17.7669L93.2411 6.79191H97.2893L88.8997 27.5826H84.8515L86.9794 22.297L80.7455 6.79191H85.0592L89.1652 17.7669ZM108.631 6.77831V10.5327C107.8 8.08269 105.748 6.77831 103.018 6.77831C98.8958 6.77831 96.4585 10.3171 96.4585 14.0375C96.4585 17.7578 98.8772 21.587 103.018 21.587C105.748 21.587 107.8 19.652 108.631 17.202V20.0762C108.631 21.2966 108.227 22.3016 107.419 23.0956C106.611 23.8895 105.628 24.2866 104.465 24.2866C102.889 24.2866 101.718 23.5129 100.95 21.9636L97.3747 23.8215C98.0441 25.042 98.9996 26.0174 100.241 26.7546C101.483 27.4896 102.891 27.8571 104.465 27.8571C106.789 27.8571 108.73 27.113 110.286 25.6204C111.841 24.13 112.619 22.2812 112.619 20.074V6.77831H108.631ZM107.479 16.8844C106.711 17.6398 105.746 18.0164 104.585 18.0164C103.424 18.0164 102.517 17.6398 101.748 16.8844C100.98 16.1109 100.597 15.1626 100.597 14.0397C100.597 12.9168 100.98 11.9776 101.748 11.2223C102.517 10.4669 103.461 10.0903 104.585 10.0903C105.709 10.0903 106.713 10.4669 107.479 11.2223C108.248 11.9572 108.631 12.8964 108.631 14.0397C108.631 15.1831 108.248 16.1313 107.479 16.8844Z" fill="white"/>
</g>
<defs>
<clipPath id="clip0_295_570">
<rect width="146" height="28" fill="white" transform="translate(0.666748)"/>
</clipPath>
</defs>
</svg>
