<svg width="25" height="25" viewBox="0 0 25 25" fill="none" xmlns="http://www.w3.org/2000/svg">
<path d="M12.625 3.06201C10.6966 3.06201 8.81157 3.63384 7.20819 4.70518C5.60482 5.77653 4.35513 7.29927 3.61718 9.08085C2.87922 10.8624 2.68614 12.8228 3.06235 14.7141C3.43855 16.6055 4.36715 18.3427 5.73071 19.7063C7.09428 21.0699 8.83156 21.9985 10.7229 22.3747C12.6142 22.7509 14.5746 22.5578 16.3562 21.8198C18.1377 21.0819 19.6605 19.8322 20.7318 18.2288C21.8032 16.6254 22.375 14.7404 22.375 12.812C22.3723 10.227 21.3442 7.74862 19.5163 5.92074C17.6884 4.09285 15.21 3.06474 12.625 3.06201ZM16.9056 13.3426L13.9056 16.3426C13.7649 16.4834 13.574 16.5624 13.375 16.5624C13.176 16.5624 12.9851 16.4834 12.8444 16.3426C12.7036 16.2019 12.6246 16.011 12.6246 15.812C12.6246 15.613 12.7036 15.4221 12.8444 15.2814L14.5647 13.562H8.875C8.67609 13.562 8.48533 13.483 8.34467 13.3423C8.20402 13.2017 8.125 13.0109 8.125 12.812C8.125 12.6131 8.20402 12.4223 8.34467 12.2817C8.48533 12.141 8.67609 12.062 8.875 12.062H14.5647L12.8444 10.3426C12.7036 10.2019 12.6246 10.011 12.6246 9.81201C12.6246 9.61299 12.7036 9.42212 12.8444 9.28139C12.9851 9.14066 13.176 9.06159 13.375 9.06159C13.574 9.06159 13.7649 9.14066 13.9056 9.28139L16.9056 12.2814C16.9754 12.351 17.0307 12.4338 17.0684 12.5248C17.1062 12.6159 17.1256 12.7135 17.1256 12.812C17.1256 12.9106 17.1062 13.0082 17.0684 13.0992C17.0307 13.1903 16.9754 13.273 16.9056 13.3426Z" fill="#18181B"/>
</svg>
